# xmcd CD database file
#
# Track frame offsets:
#	150
#	13866
#	28198
#	38671
#	49935
#	63131
#	75803
#	88886
#	101601
#	113501
#	128315
#	140616
#	152601
#	164034
#	177093
#	187658
#	198285
#	210440
#	221069
#	233399
#	244041
#	255738
#	266064
#	274511
#
# Disc length: 3808 seconds
#
# Revision: 1
# Processed by: cddbd v1.5.1PL0 Copyright (c) Steve Scherf et al.
# Submitted via: CDex 1.51
#
DISCID=360ede18
DTITLE=Nat King Cole - The Greatest Hits - CD3
DYEAR=2001
DGENRE=Jazz
TTITLE0=This Way Out
TTITLE1=Homeward Bound
TTITLE2=I`m an errand Boy for Rhythm
TTITLE3=I know that you know
TTITLE4=But She`s my Buddy`s Chick
TTITLE5=Oh, but I do
TTITLE6=How does it feel
TTITLE7=You must be blind
TTITLE8=Loan me two till Tuesday
TTITLE9=Lush Life
TTITLE10=Lillian
TTITLE11=Who do you know in Heaven
TTITLE12=Orange Colored Sky
TTITLE13=Jam-Bo
TTITLE14=Get to gettin`
TTITLE15=Paint yourself a Rainbow
TTITLE16=Destination Moon
TTITLE17=That`s ma Girl
TTITLE18=Wish I were Somebody else
TTITLE19=It`s crazy
TTITLE20=You Stepped out of a Dream
TTITLE21=Where were You
TTITLE22=Almost like being in Love
TTITLE23=This can`t be Love
EXTD=YEAR: 2001
EXTT0=
EXTT1=
EXTT2=
EXTT3=
EXTT4=
EXTT5=
EXTT6=
EXTT7=
EXTT8=
EXTT9=
EXTT10=
EXTT11=
EXTT12=
EXTT13=
EXTT14=
EXTT15=
EXTT16=
EXTT17=
EXTT18=
EXTT19=
EXTT20=
EXTT21=
EXTT22=
EXTT23=
PLAYORDER=
